<?xml version="1.0" encoding="utf-8"?>
<!-- Generator: Adobe Illustrator 15.1.0, SVG Export Plug-In . SVG Version: 6.00 Build 0)  -->
<!DOCTYPE svg PUBLIC "-//W3C//DTD SVG 1.1//EN" "http://www.w3.org/Graphics/SVG/1.1/DTD/svg11.dtd" [
	<!ENTITY ns_extend "http://ns.adobe.com/Extensibility/1.0/">
	<!ENTITY ns_ai "http://ns.adobe.com/AdobeIllustrator/10.0/">
	<!ENTITY ns_graphs "http://ns.adobe.com/Graphs/1.0/">
	<!ENTITY ns_vars "http://ns.adobe.com/Variables/1.0/">
	<!ENTITY ns_imrep "http://ns.adobe.com/ImageReplacement/1.0/">
	<!ENTITY ns_sfw "http://ns.adobe.com/SaveForWeb/1.0/">
	<!ENTITY ns_custom "http://ns.adobe.com/GenericCustomNamespace/1.0/">
	<!ENTITY ns_adobe_xpath "http://ns.adobe.com/XPath/1.0/">
]>
<svg version="1.1" id="Layer_1" xmlns:x="&ns_extend;" xmlns:i="&ns_ai;" xmlns:graph="&ns_graphs;"
	 xmlns="http://www.w3.org/2000/svg" xmlns:xlink="http://www.w3.org/1999/xlink" x="0px" y="0px" width="329px" height="387.408px"
	 viewBox="0 0 329 387.408" enable-background="new 0 0 329 387.408" xml:space="preserve">
<metadata>
	<sfw  xmlns="&ns_sfw;">
		<slices></slices>
		<sliceSourceBounds  y="95.592" x="226.5" width="329" height="387.408" bottomLeftOrigin="true"></sliceSourceBounds>
	</sfw>
</metadata>
<g>
	<polygon fill="#F36711" points="8.25,173.5 326,173.5 325.592,266.295 320.628,279.79 313.209,288.144 293.357,301.17 
		262.467,311.726 227.564,321.938 202.747,335.386 182.915,356.463 172.771,373.517 169.5,380.5 165.129,372.176 153.841,353.404 
		133.944,333.805 106.756,320.838 77.705,309.038 49.378,297.092 26.994,283.762 10.718,265.216 3.299,241.442 3.299,219.146 
		3.299,191.047 3.299,173.5 	"/>
	<polygon fill="#0C69D3" points="3.75,216.25 14.25,214.25 34.691,215.25 47.739,219.314 65.397,225.268 83.429,229.203 109,225 
		131.129,220.791 156.333,215.288 182.599,215.435 206.75,221.875 232.583,229.203 254.462,227.109 267.023,223.064 284.037,217.05 
		310.033,214.666 322.345,217.813 326,221.727 326,261 318.011,258.149 301.001,256.32 286.474,258.404 271.74,263.401 
		253.48,269.424 234.25,271.564 214.192,266.934 188.801,258.807 166.506,256.379 145.841,259.267 127.063,263.939 107.125,269.057 
		84.217,271.348 63.742,266.822 39.986,258.796 24.25,256.314 8.774,258.987 7.013,257.5 3.299,243.837 3,225.75 	"/>
	<rect x="3" y="3" fill="#E40C07" width="323" height="170.5"/>
</g>
<g>
	<path fill="#FFFFFF" d="M3.803,253.638c1.407-0.888,2.937-1.568,4.491-2.165c1.557-0.595,3.164-1.052,4.784-1.441
		c3.254-0.713,6.6-1.072,9.919-0.865c-1.657,0.105-3.306,0.245-4.941,0.47c-1.636,0.224-3.264,0.497-4.867,0.882
		c-1.613,0.346-3.199,0.805-4.768,1.315C6.854,252.351,5.306,252.933,3.803,253.638z"/>
</g>
<g>
	<path fill="#FFFFFF" d="M3.803,249.812c1.216-0.946,2.605-1.652,4.021-2.26c1.421-0.606,2.905-1.052,4.401-1.431
		c1.507-0.333,3.031-0.598,4.567-0.723c1.536-0.128,3.078-0.161,4.611-0.059c-3.062,0.214-6.103,0.538-9.064,1.268
		c-1.486,0.333-2.944,0.779-4.375,1.301C6.536,248.435,5.13,249.04,3.803,249.812z"/>
</g>
<g>
	<path fill="#FFFFFF" d="M3.803,245.985c1.216-0.946,2.605-1.652,4.021-2.26c1.421-0.606,2.905-1.052,4.401-1.431
		c1.507-0.333,3.031-0.598,4.567-0.723c1.536-0.128,3.078-0.161,4.611-0.059c-3.062,0.214-6.103,0.538-9.064,1.268
		c-1.486,0.333-2.944,0.779-4.375,1.301C6.536,244.608,5.13,245.214,3.803,245.985z"/>
</g>
<g>
	<path fill="#FFFFFF" d="M3.803,242.159c0.969-1.027,2.209-1.763,3.475-2.382c1.275-0.614,2.628-1.052,3.994-1.407
		c1.376-0.317,2.771-0.55,4.176-0.659s2.813-0.127,4.213-0.023c-2.796,0.21-5.576,0.481-8.27,1.167
		c-1.354,0.311-2.674,0.745-3.957,1.272C6.159,240.664,4.905,241.292,3.803,242.159z"/>
</g>
<g>
	<path fill="#FFFFFF" d="M3.803,238.333c0.973-1.021,2.215-1.752,3.481-2.366c1.276-0.609,2.628-1.042,3.994-1.396
		c1.376-0.313,2.77-0.544,4.173-0.651c1.403-0.107,2.81-0.125,4.209-0.021c-2.793,0.21-5.572,0.479-8.265,1.158
		c-1.353,0.308-2.674,0.738-3.957,1.26C6.163,236.85,4.908,237.472,3.803,238.333z"/>
</g>
<g>
	<path fill="#FFFFFF" d="M3,233.898c0.999-0.951,2.251-1.594,3.514-2.135c1.273-0.534,2.608-0.901,3.951-1.204
		c2.702-0.533,5.465-0.73,8.199-0.524c-2.729,0.211-5.445,0.433-8.097,1.014c-1.331,0.257-2.638,0.624-3.916,1.072
		C5.381,232.58,4.122,233.115,3,233.898z"/>
</g>
<g>
	<path fill="#FFFFFF" d="M3.803,230.681c0.649-1.101,1.749-1.86,2.857-2.466c1.127-0.602,2.348-0.999,3.576-1.315
		c1.24-0.277,2.496-0.473,3.757-0.554c1.262-0.082,2.526-0.084,3.783,0.019c-2.508,0.213-5.007,0.415-7.423,1.021
		c-1.213,0.271-2.395,0.663-3.523,1.174c-0.565,0.253-1.111,0.55-1.624,0.897C4.688,229.796,4.197,230.189,3.803,230.681z"/>
</g>
<g>
	<path fill="#231F20" d="M153,165h16.5V17c0,0-15,27-30.5,37c0,0,7,2.5,13.75-1.5c0,10.25,0,34.5,0,34.5h-48V51
		c0,0,4.5,2.25,8.75,2.25s7.75-1,9.5-2.75c-5-2.25-12-7.5-14.25-10.25s-7.5-12-9.75-18.75c-3,7.75-7.25,15-8.75,16.5
		s-7.5,10.25-16.5,16c6,0.75,8.5,0.5,9.75-0.25s4-1.75,5.75-3c0,5.5,0,54.5,0,54.5h64L153,165z"/>
	<path fill="#848689" d="M82,50.5c2-2,6.5-5.25,9.25-9.5S97.5,30.25,98,29.5s2.75-0.5,1.25,4.25s-5.492,9.25-8.371,12
		S82,50.5,82,50.5z"/>
	<path fill="#848689" d="M146.651,50.241c2.057-1.942,6.648-5.061,9.519-9.23c2.871-4.169,6.556-10.567,7.077-11.302
		c0.521-0.735,2.763-0.421,1.127,4.284c-1.635,4.705-5.755,9.088-8.711,11.755C152.707,48.414,146.651,50.241,146.651,50.241z"/>
	<line fill="none" stroke="#848689" stroke-width="3" stroke-linecap="round" x1="93.75" y1="51.25" x2="93.75" y2="101.5"/>
	<line fill="none" stroke="#848689" stroke-width="3" stroke-linecap="round" x1="158.25" y1="48.5" x2="158.25" y2="91"/>
	<line fill="none" stroke="#848689" stroke-width="3" stroke-linecap="round" x1="158.25" y1="103" x2="158.25" y2="164"/>
	<line fill="none" stroke="#848689" stroke-width="3" stroke-linecap="round" x1="154.25" y1="91.5" x2="106.083" y2="91.5"/>
</g>
<g>
	<path fill="none" stroke="#000000" stroke-width="6" d="M3,3h323c0,0,0,241.5,0,259s-8.5,25-22,35s-69.5,23-79.5,27
		s-36.5,15-55,56.5c-20.5-39.5-29.5-42-39-48s-67.5-27.5-79-33S3,279,3,237.5S3,3,3,3z"/>
	<line fill="none" stroke="#000000" stroke-width="6" x1="3" y1="173.5" x2="326" y2="173.5"/>
	<path fill="none" stroke="#000000" stroke-width="6" d="M326,219.75c-5-2.5-7.75-5.5-26.25-5.5S260.25,229.5,238,229.5
		s-41.75-15.25-68.5-15.25S110,229.5,88.75,229.5s-48.25-15.25-61-15.25S13.5,215.5,3,218.75"/>
	<path fill="none" stroke="#000000" stroke-width="6" d="M7.013,259.54c10.5-3.25,7.987-3.226,20.737-3.226s39.75,15.25,61,15.25
		s54-15.25,80.75-15.25s46.25,15.25,68.5,15.25s43.25-15.25,61.75-15.25s21.25,3,26.25,5.5"/>
</g>
<g>
	<path fill="#FFFFFF" d="M60.165,258.506c2.667,1.512,5.588,2.488,8.533,3.258c2.948,0.778,5.957,1.309,8.984,1.648
		c6.052,0.657,12.19,0.784,18.242,0.17c6.068-0.548,12.068-1.763,17.977-3.299c2.957-0.762,5.889-1.63,8.792-2.588
		c2.913-0.932,5.792-1.971,8.638-3.105c-5.534,2.643-11.33,4.724-17.227,6.438c-5.904,1.695-11.956,2.922-18.085,3.547
		c-3.067,0.288-6.158,0.371-9.231,0.305c-3.075-0.071-6.154-0.263-9.202-0.71c-3.047-0.437-6.072-1.054-9.02-1.939
		C65.643,261.298,62.722,260.213,60.165,258.506z"/>
</g>
<g>
	<path fill="#FFFFFF" d="M204.593,231.999c2.953,1.549,5.949,3.008,9.007,4.321c3.048,1.331,6.146,2.551,9.316,3.515
		c1.585,0.481,3.188,0.892,4.803,1.217c1.608,0.337,3.249,0.472,4.909,0.607c3.308,0.265,6.626,0.38,9.922,0.174
		c3.296-0.184,6.569-0.695,9.756-1.568c3.193-0.85,6.272-2.097,9.363-3.33c3.084-1.246,6.134-2.588,9.19-3.92
		c1.534-0.653,3.072-1.302,4.625-1.916c1.552-0.612,3.122-1.198,4.743-1.599c-3.163,1.058-6.15,2.547-9.161,3.973
		c-3.016,1.418-6.03,2.849-9.093,4.188c-3.058,1.336-6.182,2.577-9.424,3.488c-3.237,0.913-6.581,1.485-9.942,1.677
		c-3.362,0.18-6.724,0.031-10.056-0.266c-1.66-0.149-3.349-0.304-5.004-0.665c-1.653-0.336-3.27-0.809-4.861-1.338
		C216.329,238.407,210.312,235.428,204.593,231.999z"/>
</g>
<g>
	<path fill="#FFFFFF" d="M203.667,235.978c3.068,1.476,6.17,2.875,9.324,4.141c3.145,1.282,6.331,2.469,9.581,3.419
		c3.261,0.95,6.534,1.667,9.928,1.851c3.378,0.272,6.767,0.396,10.131,0.179c3.365-0.19,6.705-0.729,9.953-1.64
		c3.256-0.885,6.393-2.185,9.549-3.442c3.148-1.277,6.265-2.643,9.391-3.992c1.57-0.66,3.142-1.317,4.728-1.941
		c1.586-0.622,3.188-1.222,4.842-1.635c-3.229,1.083-6.285,2.588-9.365,4.03c-3.086,1.436-6.167,2.886-9.291,4.255
		c-3.119,1.37-6.299,2.654-9.604,3.605c-3.299,0.952-6.712,1.551-10.143,1.752c-3.434,0.19-6.865,0.034-10.268-0.271
		c-3.412-0.219-6.835-0.959-10.071-2.029C215.842,242.14,209.627,239.269,203.667,235.978z"/>
</g>
<g>
	<path fill="#FFFFFF" d="M203.667,239.716c3.075,1.479,6.184,2.882,9.345,4.149c3.152,1.285,6.346,2.473,9.604,3.423
		c3.269,0.954,6.549,1.661,9.952,1.844c3.385,0.272,6.781,0.391,10.152,0.169c3.372-0.194,6.718-0.746,9.972-1.666
		c3.261-0.898,6.408-2.181,9.538-3.511c3.125-1.344,6.197-2.819,9.277-4.288c1.547-0.72,3.095-1.441,4.662-2.121
		c1.566-0.678,3.154-1.335,4.812-1.754c-3.229,1.107-6.221,2.768-9.254,4.319c-3.036,1.554-6.075,3.114-9.181,4.552
		c-3.097,1.448-6.297,2.717-9.604,3.682c-3.304,0.962-6.722,1.571-10.16,1.78c-3.44,0.195-6.881,0.044-10.291-0.262
		c-1.698-0.15-3.427-0.321-5.116-0.687c-1.691-0.339-3.346-0.814-4.979-1.335C215.869,245.892,209.641,243.014,203.667,239.716z"/>
</g>
<g>
	<path fill="#FFFFFF" d="M202.834,243.33c3.141,1.461,6.311,2.853,9.528,4.119c3.21,1.282,6.457,2.477,9.764,3.449
		c3.315,0.966,6.648,1.743,10.092,1.942c3.436,0.286,6.884,0.423,10.308,0.21c3.424-0.188,6.823-0.732,10.127-1.666
		c3.31-0.91,6.504-2.216,9.682-3.566c3.173-1.363,6.295-2.856,9.426-4.339c1.572-0.728,3.146-1.455,4.737-2.144
		c1.591-0.685,3.202-1.353,4.884-1.78c-3.277,1.126-6.319,2.803-9.403,4.368c-3.086,1.568-6.175,3.146-9.327,4.603
		c-3.144,1.469-6.392,2.76-9.749,3.737c-3.354,0.975-6.827,1.583-10.318,1.778c-3.494,0.187-6.984,0.016-10.444-0.304
		c-3.48-0.233-6.939-1.043-10.233-2.124C215.288,249.456,208.946,246.59,202.834,243.33z"/>
</g>
<g>
	<path fill="#FFFFFF" d="M202.834,247.424c3.175,1.412,6.376,2.761,9.623,3.982c3.238,1.241,6.512,2.394,9.841,3.331
		c3.339,0.932,6.688,1.666,10.147,1.861c3.447,0.28,6.906,0.405,10.34,0.174c3.434-0.2,6.839-0.778,10.149-1.729
		c3.315-0.934,6.515-2.263,9.712-3.6c3.189-1.356,6.338-2.821,9.498-4.269c1.586-0.71,3.173-1.42,4.777-2.093
		c1.604-0.669,3.226-1.322,4.912-1.752c-3.289,1.124-6.366,2.754-9.479,4.287c-3.115,1.536-6.23,3.081-9.397,4.529
		c-3.162,1.453-6.406,2.774-9.769,3.771c-3.36,0.994-6.839,1.631-10.341,1.849c-3.505,0.204-7.008,0.045-10.48-0.269
		c-3.485-0.23-6.967-0.989-10.282-2.039C215.422,253.373,209.018,250.595,202.834,247.424z"/>
</g>
<g>
	<path fill="#FFFFFF" d="M202.834,250.932c3.121,1.43,6.271,2.794,9.467,4.035c3.188,1.256,6.41,2.429,9.69,3.388
		c3.287,0.946,6.594,1.736,10.003,1.944c3.404,0.291,6.822,0.44,10.218,0.249c3.396-0.174,6.769-0.682,10.051-1.579
		c3.29-0.868,6.455-2.172,9.646-3.425c3.184-1.27,6.339-2.617,9.505-3.947c1.589-0.651,3.182-1.298,4.786-1.913
		c1.604-0.613,3.225-1.205,4.893-1.62c-3.257,1.087-6.357,2.567-9.478,3.993c-3.126,1.416-6.247,2.852-9.405,4.212
		c-3.153,1.357-6.362,2.651-9.704,3.585c-3.334,0.936-6.781,1.515-10.243,1.684c-3.463,0.164-6.921-0.019-10.351-0.343
		c-3.454-0.241-6.87-1.067-10.14-2.128C215.21,256.939,208.911,254.13,202.834,250.932z"/>
</g>
<g>
	<path fill="#FFFFFF" d="M201.334,253.638c3.162,1.504,6.352,2.946,9.585,4.278c3.229,1.34,6.485,2.615,9.803,3.688
		c3.319,1.049,6.688,2.009,10.122,2.329c3.474,0.33,6.957,0.527,10.425,0.397c3.466-0.132,6.917-0.567,10.277-1.436
		c3.37-0.827,6.604-2.139,9.869-3.396c3.262-1.26,6.504-2.579,9.757-3.878c3.271-1.244,6.522-2.591,9.921-3.464
		c-3.325,1.097-6.518,2.538-9.726,3.935c-3.214,1.387-6.42,2.796-9.654,4.148c-3.229,1.343-6.509,2.661-9.936,3.55
		c-3.417,0.899-6.943,1.43-10.476,1.522c-3.532,0.101-7.054-0.131-10.545-0.495c-3.549-0.348-6.953-1.37-10.267-2.525
		C213.863,259.943,207.494,256.968,201.334,253.638z"/>
</g>
<g>
	<path fill="#FFFFFF" d="M61.666,255.185c2.591,1.484,5.479,2.327,8.365,2.987c2.892,0.67,5.839,1.087,8.795,1.341
		c5.914,0.496,11.88,0.525,17.783-0.057c5.916-0.518,11.774-1.609,17.568-2.951c2.899-0.669,5.777-1.433,8.636-2.271
		c2.866-0.813,5.705-1.724,8.519-2.716c-5.487,2.357-11.189,4.2-16.972,5.725c-5.786,1.516-11.693,2.598-17.657,3.204
		c-2.986,0.276-5.986,0.388-8.984,0.354c-2.994-0.037-5.994-0.154-8.971-0.515c-2.977-0.351-5.938-0.863-8.837-1.632
		c-1.445-0.399-2.873-0.864-4.264-1.418C64.26,256.678,62.886,256.05,61.666,255.185z"/>
</g>
<g>
	<path fill="#FFFFFF" d="M61.666,251.09c2.562,1.469,5.416,2.307,8.268,2.966c2.859,0.666,5.771,1.087,8.693,1.345
		c5.846,0.498,11.747,0.556,17.584-0.007c5.85-0.491,11.644-1.564,17.366-2.913c2.864-0.671,5.706-1.439,8.525-2.29
		c2.828-0.824,5.626-1.751,8.396-2.767c-5.394,2.405-11.022,4.27-16.735,5.798c-5.717,1.519-11.561,2.586-17.462,3.166
		c-2.952,0.261-5.926,0.357-8.885,0.316c-2.96-0.043-5.926-0.17-8.869-0.536c-2.942-0.354-5.87-0.866-8.734-1.635
		c-1.428-0.397-2.839-0.859-4.214-1.409C64.229,252.569,62.872,251.945,61.666,251.09z"/>
</g>
<g>
	<path fill="#FFFFFF" d="M61.666,246.996c2.526,1.45,5.339,2.282,8.151,2.939c2.819,0.662,5.689,1.087,8.571,1.35
		c5.763,0.513,11.586,0.568,17.348,0.071c5.775-0.43,11.504-1.401,17.168-2.649c2.834-0.619,5.649-1.333,8.442-2.13
		c2.801-0.771,5.574-1.643,8.32-2.606c-5.349,2.308-10.931,4.059-16.586,5.486c-5.663,1.409-11.439,2.385-17.264,2.895
		c-2.916,0.226-5.845,0.299-8.764,0.254c-2.92-0.052-5.845-0.188-8.746-0.561c-2.901-0.358-5.788-0.87-8.61-1.638
		c-1.407-0.396-2.798-0.854-4.153-1.4C64.193,248.458,62.855,247.84,61.666,246.996z"/>
</g>
<g>
	<path fill="#FFFFFF" d="M61.666,242.907c2.521,1.446,5.328,2.276,8.133,2.933c2.812,0.66,5.677,1.086,8.553,1.349
		c5.751,0.519,11.559,0.559,17.314,0.097c5.767-0.396,11.496-1.288,17.169-2.434c2.839-0.567,5.662-1.224,8.466-1.956
		c2.812-0.705,5.6-1.509,8.365-2.395c-5.397,2.158-11.001,3.78-16.668,5.104c-5.673,1.306-11.445,2.202-17.258,2.676
		c-5.821,0.382-11.671,0.358-17.47-0.333c-2.895-0.358-5.774-0.87-8.591-1.637c-1.404-0.396-2.792-0.853-4.144-1.397
		C64.188,244.366,62.853,243.749,61.666,242.907z"/>
</g>
<g>
	<path fill="#FFFFFF" d="M62.961,239.236c2.394,1.464,5.132,2.202,7.843,2.796c2.722,0.592,5.493,0.95,8.271,1.164
		c5.557,0.42,11.156,0.427,16.713-0.002c5.567-0.357,11.1-1.167,16.587-2.203c2.746-0.514,5.477-1.112,8.191-1.783
		c2.721-0.645,5.42-1.385,8.099-2.207c-5.229,2.028-10.655,3.526-16.136,4.741c-5.486,1.203-11.062,2.006-16.67,2.449
		c-5.614,0.353-11.254,0.354-16.855-0.229c-2.796-0.31-5.583-0.758-8.312-1.454c-1.361-0.362-2.707-0.785-4.016-1.303
		C65.374,240.684,64.076,240.094,62.961,239.236z"/>
</g>
<g>
	<path fill="#FFFFFF" d="M62.961,235.462c2.398,1.367,5.104,2.041,7.781,2.588c2.688,0.545,5.417,0.876,8.153,1.074
		c5.47,0.382,10.985,0.41,16.453,0.007c5.479-0.339,10.926-1.119,16.322-2.158c2.7-0.513,5.385-1.113,8.05-1.797
		c2.673-0.654,5.322-1.409,7.945-2.26c-5.112,2.084-10.447,3.596-15.838,4.812c-5.398,1.199-10.89,1.984-16.411,2.398
		c-5.531,0.321-11.074,0.312-16.588-0.242c-2.753-0.293-5.498-0.71-8.191-1.36c-1.343-0.339-2.674-0.732-3.972-1.215
		C65.373,236.82,64.084,236.271,62.961,235.462z"/>
</g>
</svg>
